<?xml version="1.0" encoding="iso-8859-1"?>
<!-- Generator: Adobe Illustrator 19.0.0, SVG Export Plug-In . SVG Version: 6.00 Build 0)  -->
<svg version="1.1" id="Layer_1" xmlns="http://www.w3.org/2000/svg" xmlns:xlink="http://www.w3.org/1999/xlink" x="0px" y="0px"
	 viewBox="0 0 512 512" style="enable-background:new 0 0 512 512;" xml:space="preserve">
<g>
	<g>
		<path d="M308.636,233.013c-14.171-9.976-32.865-15.47-52.637-15.47s-38.465,5.494-52.636,15.47
			C188.297,243.619,180,258.008,180,273.531c0,15.522,8.297,29.911,23.364,40.518c14.171,9.976,32.864,15.47,52.636,15.47
			s38.466-5.494,52.637-15.47C323.703,303.442,332,289.052,332,273.529S323.703,243.618,308.636,233.013z M255.999,312.721
			c-32.091,0-59.203-17.948-59.203-39.192c0-21.243,27.112-39.191,59.203-39.191c32.091,0,59.204,17.948,59.204,39.191
			C315.204,294.774,288.091,312.721,255.999,312.721z"/>
	</g>
</g>
<g>
	<g>
		<path d="M255.999,240.859c-18.015,0-32.672,14.656-32.672,32.672s14.657,32.672,32.672,32.672
			c18.016,0,32.673-14.657,32.673-32.672C288.672,255.516,274.015,240.859,255.999,240.859z M255.999,289.405
			c-8.753,0-15.875-7.122-15.875-15.875c0-8.753,7.121-15.875,15.875-15.875s15.876,7.122,15.876,15.875
			C271.876,282.284,264.754,289.405,255.999,289.405z"/>
	</g>
</g>
<g>
	<g>
		<path d="M390.432,106.065C374.563,46.991,320.329,5.732,258.547,5.732c-61.784,0-116.017,41.259-131.885,100.334
			c-1.203,4.479,1.452,9.086,5.932,10.29c0.729,0.196,1.462,0.289,2.184,0.289c3.706,0,7.098-2.471,8.105-6.221
			c13.901-51.751,61.464-87.895,115.664-87.895c54.199,0,101.762,36.143,115.664,87.894c1.203,4.481,5.806,7.136,10.29,5.933
			C388.98,115.15,391.635,110.544,390.432,106.065z"/>
	</g>
</g>
<g>
	<g>
		<path d="M347.174,117.686c-10.623-39.544-47.068-67.163-88.628-67.163c-41.56,0-78.006,27.618-88.628,67.163
			c-1.203,4.479,1.452,9.086,5.932,10.29c4.475,1.203,9.086-1.452,10.288-5.933c8.655-32.219,38.429-54.723,72.407-54.723
			c33.975,0,63.751,22.504,72.406,54.724c1.007,3.75,4.4,6.221,8.105,6.221c0.722,0,1.455-0.094,2.184-0.29
			C345.722,126.771,348.377,122.165,347.174,117.686z"/>
	</g>
</g>
<g>
	<g>
		<path d="M303.916,129.305c-5.375-20.014-24.031-33.992-45.369-33.992c-21.338,0-39.995,13.978-45.371,33.992
			c-1.203,4.479,1.452,9.086,5.933,10.288c4.474,1.203,9.085-1.452,10.288-5.931c3.409-12.69,15.395-21.552,29.149-21.552
			s25.74,8.863,29.149,21.552c1.007,3.75,4.4,6.221,8.105,6.221c0.722,0,1.455-0.093,2.184-0.29
			C302.463,138.391,305.118,133.784,303.916,129.305z"/>
	</g>
</g>
<g>
	<g>
		<path d="M458.225,256.07v-60.669c0-22.313-18.153-40.465-40.465-40.465H156.318c-4.639,0-8.398,3.76-8.398,8.398
			c0,4.638,3.759,8.398,8.398,8.398H417.76c13.051,0,23.669,10.618,23.669,23.669v66.836v61.852l-17.046-17.699
			c-1.685-1.75-3.516-3.311-5.467-4.669c-1.738-1.211-3.574-2.251-5.482-3.133V196.926c0-4.638-3.759-8.398-8.398-8.398h-41.733
			c-4.639,0-8.398,3.76-8.398,8.398c0,4.638,3.759,8.398,8.398,8.398h33.334v89.932c-4.02,0.16-7.964,0.995-11.688,2.451
			c-0.064,0.025-0.127,0.05-0.19,0.076c-4.349,1.721-8.374,4.312-11.744,7.554c-0.029,0.028-0.06,0.054-0.09,0.082
			c-4.234,4.078-7.48,9.23-9.324,14.81c-1.887,5.712-2.325,11.875-1.266,17.797c0.012,0.069,0.025,0.138,0.038,0.207
			c0.217,1.175,0.473,2.345,0.807,3.499H148.82c3.386-11.689,0.418-24.716-7.499-33.918c-1.445-1.68-3.045-3.225-4.776-4.608
			c-5.997-4.791-13.507-7.645-21.184-7.951v-89.933h214.499c4.639,0,8.398-3.76,8.398-8.398s-3.759-8.398-8.398-8.398H106.963
			c-4.639,0-8.398,3.76-8.398,8.398v101.661c-4.049,1.872-7.761,4.491-10.948,7.801l-17.045,17.698c0,0,0-61.85-0.001-61.87v-66.817
			c0-13.051,10.618-23.669,23.67-23.669h28.485c4.639,0,8.398-3.76,8.398-8.398c0-4.638-3.759-8.398-8.398-8.398H94.24
			c-22.314,0-40.466,18.153-40.466,40.465v60.669C21.809,267.464,0,297.954,0,332.364v92.897c0,44.668,36.339,81.006,81.006,81.006
			h58.656c21.271,0,38.576-17.305,38.576-38.576v-75.567h155.525v75.567h-0.001c0,21.271,17.305,38.576,38.576,38.576h58.655
			c44.668,0,81.007-36.34,81.007-81.006v-92.897C512,297.955,490.19,267.464,458.225,256.07z M139.662,489.471H81.006
			c-35.405,0-64.21-28.805-64.21-64.21v-92.897c0-25.202,14.752-47.754,36.977-58.159v67.324l-17,17.653
			c-2.665,2.766-5.787,5.274-5.708,9.471c0.138,7.336,9.374,10.932,14.446,5.669c0,0,22.711-23.581,22.725-23.596
			c0,0,31.47-32.677,31.479-32.686c7.317-7.597,20.109-7.845,27.708-0.521c7.649,7.373,7.882,20.062,0.521,27.708l-31.468,32.674
			l-17.165,17.823c0,0-5.571,5.785-5.572,5.785c-3.159,3.28-3.075,8.699,0.223,11.875c3.284,3.163,8.706,3.064,11.875-0.223
			l20.26-21.036h14.239c7.162,11.165,10.927,26.408,10.927,44.4c0,4.638,3.759,8.398,8.398,8.398s8.398-3.76,8.398-8.398
			c0-16.887-2.981-31.943-8.682-44.4h22.063v75.565h0.001C161.442,479.701,151.671,489.471,139.662,489.471z M122.273,375.328
			l16.176-16.797h235.099l16.176,16.797h-2.431H122.273z M495.203,425.262c0,35.406-28.805,64.21-64.211,64.21
			c0,0-58.655,0-58.656,0c-12.01,0-21.778-9.771-21.778-21.779v-75.567h22.062c-5.7,12.456-8.68,27.513-8.68,44.4
			c0,4.638,3.759,8.398,8.398,8.398s8.398-3.76,8.398-8.398c0-17.992,3.765-33.236,10.926-44.4h14.239l20.259,21.036
			c1.534,1.593,3.644,2.47,5.843,2.565c2.217,0.095,4.442-0.81,6.033-2.341c3.34-3.218,3.44-8.535,0.223-11.875l-22.737-23.608
			c0,0-31.467-32.673-31.469-32.674c-4.891-5.081-6.714-12.818-4.544-19.594c0.007-0.023,0.012-0.046,0.019-0.068
			c4.492-13.646,22.682-17.989,32.757-7.526l31.494,32.701l22.71,23.581c3.219,3.341,8.535,3.441,11.875,0.224
			c3.34-3.218,3.44-8.535,0.223-11.875l-20.361-21.141v-67.325c22.226,10.406,36.978,32.958,36.978,58.16V425.262z"/>
	</g>
</g>
<g>
</g>
<g>
</g>
<g>
</g>
<g>
</g>
<g>
</g>
<g>
</g>
<g>
</g>
<g>
</g>
<g>
</g>
<g>
</g>
<g>
</g>
<g>
</g>
<g>
</g>
<g>
</g>
<g>
</g>
</svg>
