<?xml version="1.0" encoding="iso-8859-1"?>
<!-- Generator: Adobe Illustrator 19.0.0, SVG Export Plug-In . SVG Version: 6.00 Build 0)  -->
<svg version="1.1" id="Capa_1" xmlns="http://www.w3.org/2000/svg" xmlns:xlink="http://www.w3.org/1999/xlink" x="0px" y="0px"
	 viewBox="0 0 512 512" style="enable-background:new 0 0 512 512;" xml:space="preserve">
<g>
	<g>
		<path d="M474.5,228.84H346.869L275.473,47.902l-49.117,144.622l-26.416-47.799l-45.651,84.113H37.5
			c-20.678,0-37.5,16.822-37.5,37.5v158v49.989c0,20.678,16.822,37.5,37.5,37.5h437c20.678,0,37.5-16.822,37.5-37.5v-49.989v-158
			C512,245.662,495.178,228.84,474.5,228.84z M420.833,243.84H474.5c12.406,0,22.5,10.094,22.5,22.5v158
			c0,12.406-10.094,22.5-22.5,22.5h-53.667V243.84z M72.833,243.84h73.315l-33.83,62.333H90.667v15h72.667v-15h-33.949
			l70.675-130.22l29.584,53.535l46.883-138.046l84.731,214.73h-43.591v15h72.666v-15h-12.949l-24.596-62.333h53.045v203h-333V243.84
			z M15,266.34c0-12.406,10.093-22.5,22.5-22.5h20.333v203H37.5c-12.407,0-22.5-10.094-22.5-22.5V266.34z M497,474.329L497,474.329
			c0,12.406-10.094,22.5-22.5,22.5h-437c-12.407,0-22.5-10.094-22.5-22.5v-20.007c0.014,0.011,0.029,0.021,0.044,0.032
			c0.078,0.059,0.159,0.114,0.238,0.172c0.366,0.27,0.737,0.535,1.113,0.792c0.157,0.107,0.316,0.21,0.474,0.315
			c0.309,0.204,0.62,0.405,0.936,0.6c0.173,0.108,0.347,0.214,0.523,0.319c0.32,0.191,0.644,0.377,0.971,0.559
			c0.164,0.092,0.328,0.185,0.494,0.275c0.427,0.23,0.859,0.451,1.296,0.665c0.065,0.031,0.127,0.066,0.192,0.097
			c0.499,0.24,1.006,0.468,1.517,0.687c0.161,0.069,0.325,0.133,0.487,0.199c0.359,0.148,0.719,0.292,1.084,0.428
			c0.194,0.073,0.39,0.143,0.585,0.213c0.347,0.124,0.696,0.242,1.047,0.355c0.195,0.063,0.39,0.126,0.586,0.186
			c0.396,0.121,0.795,0.233,1.196,0.341c0.149,0.04,0.296,0.084,0.445,0.122c0.548,0.14,1.101,0.268,1.658,0.384
			c0.129,0.027,0.26,0.048,0.389,0.073c0.434,0.085,0.87,0.165,1.31,0.235c0.199,0.031,0.398,0.059,0.598,0.087
			c0.381,0.054,0.764,0.104,1.148,0.146c0.21,0.023,0.42,0.046,0.63,0.065c0.401,0.038,0.804,0.067,1.208,0.092
			c0.186,0.011,0.371,0.026,0.558,0.035c0.588,0.027,1.178,0.045,1.773,0.045h437c0.594,0,1.185-0.018,1.773-0.045
			c0.187-0.009,0.372-0.023,0.558-0.035c0.404-0.025,0.807-0.054,1.208-0.092c0.211-0.02,0.421-0.042,0.63-0.065
			c0.385-0.043,0.767-0.092,1.148-0.146c0.2-0.028,0.4-0.055,0.598-0.087c0.439-0.07,0.876-0.15,1.31-0.235
			c0.13-0.025,0.26-0.046,0.389-0.073c0.557-0.115,1.11-0.244,1.658-0.384c0.149-0.038,0.296-0.082,0.445-0.122
			c0.401-0.108,0.8-0.22,1.196-0.341c0.197-0.06,0.391-0.123,0.586-0.186c0.351-0.114,0.7-0.232,1.047-0.355
			c0.196-0.07,0.391-0.14,0.585-0.213c0.364-0.136,0.724-0.28,1.082-0.427c0.163-0.067,0.327-0.131,0.489-0.2
			c0.511-0.219,1.017-0.446,1.517-0.687c0.065-0.031,0.128-0.066,0.192-0.097c0.437-0.214,0.869-0.435,1.296-0.665
			c0.166-0.089,0.329-0.183,0.494-0.275c0.326-0.182,0.65-0.367,0.971-0.559c0.175-0.105,0.349-0.211,0.523-0.319
			c0.315-0.195,0.627-0.396,0.936-0.6c0.158-0.105,0.318-0.208,0.474-0.315c0.376-0.257,0.747-0.522,1.113-0.792
			c0.079-0.058,0.16-0.113,0.238-0.172c0.014-0.011,0.03-0.021,0.044-0.032V474.329z"/>
	</g>
</g>
<g>
	<g>
		<rect x="28.833" y="300.34" width="15" height="58"/>
	</g>
</g>
<g>
	<g>
		<rect x="28.833" y="373.34" width="15" height="17"/>
	</g>
</g>
<g>
	<g>
		<path d="M458.667,321.84c-12.958,0-23.5,10.542-23.5,23.5s10.542,23.5,23.5,23.5s23.5-10.542,23.5-23.5
			S471.625,321.84,458.667,321.84z M458.667,353.84c-4.687,0-8.5-3.813-8.5-8.5s3.813-8.5,8.5-8.5s8.5,3.813,8.5,8.5
			S463.354,353.84,458.667,353.84z"/>
	</g>
</g>
<g>
	<g>
		<path d="M280,315.173c-5.526,0-10.772,1.211-15.5,3.367v-3.2c0-21.78-17.72-39.5-39.5-39.5c-21.78,0-39.5,17.72-39.5,39.5v20
			c0,19.216,13.795,35.262,32,38.777v42.223h15v-42.223c4.921-0.95,9.516-2.817,13.607-5.414
			c4.987,10.501,14.709,18.334,26.393,20.716v26.922h15v-26.922c17.096-3.484,30-18.635,30-36.745
			C317.5,331.994,300.678,315.173,280,315.173z M249.5,330.895c-4.36,6.09-6.949,13.528-6.995,21.561
			c-2.752,2.814-6.173,4.969-10.005,6.204V326.34h-15v32.321c-9.851-3.176-17-12.427-17-23.321v-20c0-13.51,10.991-24.5,24.5-24.5
			c13.509,0,24.5,10.99,24.5,24.5V330.895z M287.5,373.882v-23.21h-15v23.21c-7.375-2.616-12.994-8.972-14.559-16.779
			c3.955-5.966,6.327-13.062,6.532-20.691c4.041-3.861,9.51-6.24,15.527-6.24c12.406,0,22.5,10.094,22.5,22.5
			C302.5,362.449,296.229,370.787,287.5,373.882z"/>
	</g>
</g>
<g>
	<g>
		<path d="M131.054,43.573l-14.006,5.369c1.511,3.94,2.538,8.064,3.056,12.257l14.887-1.836
			C134.325,53.962,133.001,48.649,131.054,43.573z"/>
	</g>
</g>
<g>
	<g>
		<path d="M112.638,17.076l-9.931,11.242c3.174,2.804,6.008,5.985,8.423,9.456l12.313-8.566
			C120.344,24.754,116.709,20.672,112.638,17.076z"/>
	</g>
</g>
<g>
	<g>
		<path d="M84.025,2.097l-3.562,14.57c4.099,1.002,8.077,2.507,11.822,4.471l6.967-13.285C94.43,5.324,89.307,3.388,84.025,2.097z"
			/>
	</g>
</g>
<g>
	<g>
		<path d="M92.532,114.079c-3.735,1.983-7.704,3.508-11.796,4.532l3.642,14.551c5.271-1.319,10.381-3.282,15.189-5.835
			L92.532,114.079z"/>
	</g>
</g>
<g>
	<g>
		<path d="M111.287,97.345c-2.396,3.483-5.213,6.68-8.374,9.5l9.988,11.191c4.054-3.619,7.669-7.72,10.744-12.189L111.287,97.345z"
			/>
	</g>
</g>
<g>
	<g>
		<path d="M120.139,73.858c-0.495,4.199-1.501,8.331-2.99,12.28l14.035,5.293c1.918-5.087,3.214-10.409,3.851-15.817L120.139,73.858
			z"/>
	</g>
</g>
<g>
	<g>
		<path d="M68,120.173c-4.248,0-8.472-0.51-12.555-1.516l-3.588,14.564c5.256,1.295,10.688,1.951,16.143,1.951h0.051h0.163v-15
			L68,120.173z"/>
	</g>
</g>
<g>
	<g>
		<path d="M12.423,29.399c-3.095,4.482-5.639,9.328-7.564,14.402l14.025,5.318c1.496-3.943,3.475-7.711,5.883-11.197L12.423,29.399z
			"/>
	</g>
</g>
<g>
	<g>
		<path d="M15.5,67.673c0-2.099,0.125-4.212,0.373-6.279L0.979,59.612C0.661,62.269,0.5,64.98,0.5,67.673
			c0,2.736,0.167,5.491,0.495,8.19l14.89-1.812C15.629,71.951,15.5,69.806,15.5,67.673z"/>
	</g>
</g>
<g>
	<g>
		<path d="M67.88,0.173c-5.456,0.01-10.886,0.676-16.14,1.98l3.615,14.559c4.081-1.014,8.304-1.531,12.551-1.539L67.88,0.173z"/>
	</g>
</g>
<g>
	<g>
		<path d="M36.54,7.962c-4.794,2.534-9.286,5.652-13.35,9.267l9.968,11.209c3.165-2.816,6.662-5.243,10.393-7.216L36.54,7.962z"/>
	</g>
</g>
<g>
	<g>
		<path d="M18.917,86.314L4.903,91.66c1.934,5.068,4.485,9.906,7.584,14.378l12.329-8.543C22.405,94.016,20.42,90.254,18.917,86.314
			z"/>
	</g>
</g>
<g>
	<g>
		<path d="M33.222,106.966l-9.949,11.225c4.072,3.609,8.57,6.721,13.37,9.248l6.988-13.274
			C39.895,112.198,36.393,109.776,33.222,106.966z"/>
	</g>
</g>
<g>
	<g>
		<path d="M68,30.173c-20.678,0-37.5,16.822-37.5,37.5s16.822,37.5,37.5,37.5s37.5-16.822,37.5-37.5S88.678,30.173,68,30.173z
			 M68,90.173c-12.407,0-22.5-10.094-22.5-22.5s10.093-22.5,22.5-22.5s22.5,10.094,22.5,22.5S80.407,90.173,68,90.173z"/>
	</g>
</g>
<g>
	<g>
		<path d="M455.667,49.173c-23.698,0-44.491,15.05-52.26,36.798c-2.524-0.531-5.109-0.798-7.74-0.798
			c-20.678,0-37.5,16.822-37.5,37.5s16.822,37.5,37.5,37.5h60c30.603,0,55.5-24.897,55.5-55.5
			C511.167,74.069,486.27,49.173,455.667,49.173z M455.667,145.173h-60c-12.406,0-22.5-10.094-22.5-22.5s10.094-22.5,22.5-22.5
			c3.376,0,6.623,0.73,9.65,2.171l8.759,4.168l1.829-9.526c3.651-19.013,20.373-32.813,39.762-32.813
			c22.332,0,40.5,18.168,40.5,40.5C496.167,127.004,477.999,145.173,455.667,145.173z"/>
	</g>
</g>
<g>
	<g>
		<rect x="320.67" y="2.84" width="110" height="15"/>
	</g>
</g>
<g>
	<g>
		<rect x="268.67" y="2.84" width="37" height="15"/>
	</g>
</g>
<g>
	<g>
		<rect x="350.67" y="45.507" width="44.666" height="15"/>
	</g>
</g>
<g>
	<g>
		<rect x="158.67" y="58.171" width="58" height="15"/>
	</g>
</g>
<g>
	<g>
		<rect x="93.67" y="170.171" width="17" height="15"/>
	</g>
</g>
<g>
	<g>
		<rect x="28.667" y="170.171" width="50" height="15"/>
	</g>
</g>
<g>
	<g>
		<rect x="96" y="360.171" width="88.67" height="15"/>
	</g>
</g>
<g>
	<g>
		<rect x="136.67" y="392.171" width="45.33" height="15"/>
	</g>
</g>
<g>
	<g>
		<rect x="102.67" y="415.511" width="40.667" height="15"/>
	</g>
</g>
<g>
	<g>
		<rect x="320" y="385.511" width="43.33" height="15"/>
	</g>
</g>
<g>
	<g>
		<rect x="90" y="258.511" width="22.667" height="15"/>
	</g>
</g>
<g>
	<g>
		<rect x="357.33" y="351.511" width="25.334" height="15"/>
	</g>
</g>
<g>
	<g>
		<rect x="299.952" y="237.966" transform="matrix(0.9259 -0.3778 0.3778 0.9259 -70.3282 134.4197)" width="15" height="17"/>
	</g>
</g>
<g>
	<g>
		<rect x="280.134" y="168.859" transform="matrix(0.9259 -0.3778 0.3778 0.9259 -53.4335 123.3304)" width="15" height="58.001"/>
	</g>
</g>
<g>
	<g>
		
			<rect x="174.405" y="240.519" transform="matrix(0.4771 -0.8789 0.8789 0.4771 -119.8322 294.6389)" width="26.55" height="15.001"/>
	</g>
</g>
<g>
</g>
<g>
</g>
<g>
</g>
<g>
</g>
<g>
</g>
<g>
</g>
<g>
</g>
<g>
</g>
<g>
</g>
<g>
</g>
<g>
</g>
<g>
</g>
<g>
</g>
<g>
</g>
<g>
</g>
</svg>
