<?xml version="1.0" encoding="iso-8859-1"?>
<!-- Generator: Adobe Illustrator 19.0.0, SVG Export Plug-In . SVG Version: 6.00 Build 0)  -->
<svg version="1.1" id="Capa_1" xmlns="http://www.w3.org/2000/svg" xmlns:xlink="http://www.w3.org/1999/xlink" x="0px" y="0px"
	 viewBox="0 0 353.88 353.88" style="enable-background:new 0 0 353.88 353.88;" xml:space="preserve">
<g>
	<g>
		<path d="M218.045,132.715c-0.566-0.983-1.382-1.799-2.365-2.365l-35.28-20.36h-0.36l-34.88-20.52
			c-3.061-1.767-6.975-0.719-8.743,2.342c-0.565,0.978-0.861,2.088-0.857,3.218v81.64c-0.002,3.48,2.762,6.332,6.24,6.44
			c1.335-0.002,2.635-0.422,3.72-1.2l34.8-20l35.36-20.4C218.762,139.734,219.821,135.797,218.045,132.715z M173.92,150.83
			l-25.68,14.84v-29.84v-29.68l25.36,14.8l0.32,0.2l25.72,14.84L173.92,150.83z"/>
	</g>
</g>
<g>
	<g>
		<path d="M344.04,144.95c-7.432-10.445-16.852-19.322-27.72-26.12c-2.971-1.977-6.983-1.171-8.96,1.8s-1.171,6.983,1.8,8.96
			c9.403,5.889,17.557,13.568,24,22.6c4.996,6.89,7.785,15.132,8,23.64c0,19.2-15,37.04-39.72,50.92
			c-25.4,14.28-60.64,24-100.56,26.96l-20.6-12L159,229.43c-3.087-1.767-7.021-0.698-8.789,2.389
			c-0.553,0.966-0.846,2.058-0.851,3.171v18.32c-38.52-3.2-72.48-12.96-97.04-26.88c-24.56-13.92-39.16-31.52-39.16-50.64
			c0.199-8.535,2.989-16.808,8-23.72c6.449-9.027,14.602-16.704,24-22.6c2.859-2.116,3.46-6.149,1.344-9.008
			c-1.945-2.627-5.55-3.381-8.384-1.752c-10.974,6.796-20.491,15.701-28,26.2C3.7,153.942,0.171,164.71,0,175.79
			c0,24,17.32,45.72,45.88,61.88c26.36,14.92,62.56,25.32,103.4,28.6v17.88c-0.011,3.557,2.863,6.449,6.42,6.46
			c1.29,0.004,2.551-0.379,3.62-1.1l20.88-12l0.32-0.2l18.28-10.56c43-2.68,81.24-13.28,108.76-28.72
			c28.8-16,46.32-37.92,46.32-62.16C353.802,164.805,350.371,154.025,344.04,144.95z M174.32,266.15h-0.36l-11.64,6.8v-26.72
			l11.6,6.72l11.64,6.72L174.32,266.15z"/>
	</g>
</g>
<g>
	<g>
		<path d="M286.88,68.95l-0.4-0.4c-3.37-3.38-7.947-5.28-12.72-5.28H80.56c-4.759,0.01-9.32,1.909-12.68,5.28
			c-3.377,3.372-5.276,7.948-5.28,12.72v109.12c0,4.773,1.9,9.35,5.28,12.72c3.366,3.391,7.942,5.305,12.72,5.32h193.2
			c4.565-0.007,8.956-1.752,12.28-4.88l0.44-0.4c3.38-3.37,5.28-7.947,5.28-12.72V81.31C291.803,76.712,290.042,72.288,286.88,68.95
			z M93.16,195.51h-12.6c-1.362,0.01-2.672-0.522-3.64-1.48c-0.972-0.962-1.52-2.272-1.52-3.64v-5h17.76V195.51z M93.16,172.51
			H75.44v-16h17.72V172.51z M93.16,143.75H75.44v-16h17.72V143.75z M93.16,114.99H75.44v-16h17.72V114.99z M93.16,86.23H75.44v-4.92
			c-0.01-1.362,0.522-2.672,1.48-3.64c0.968-0.958,2.278-1.49,3.64-1.48h12.6V86.23z M247.96,195.47H106.2V76.15h141.92
			L247.96,195.47z M278.72,190.31c0,1.368-0.547,2.678-1.52,3.64l-0.24,0.24c-0.939,0.828-2.148,1.283-3.4,1.28h-12.4v-10.08h17.88
			L278.72,190.31z M278.72,172.43h-17.56v-16h17.88L278.72,172.43z M278.72,143.67h-17.56v-16h17.88L278.72,143.67z M278.72,114.91
			h-17.56v-16h17.88L278.72,114.91z M278.72,86.15h-17.56v-10h12.76c1.368,0,2.678,0.547,3.64,1.52l0.24,0.24
			c0.828,0.939,1.283,2.148,1.28,3.4L278.72,86.15z"/>
	</g>
</g>
<g>
</g>
<g>
</g>
<g>
</g>
<g>
</g>
<g>
</g>
<g>
</g>
<g>
</g>
<g>
</g>
<g>
</g>
<g>
</g>
<g>
</g>
<g>
</g>
<g>
</g>
<g>
</g>
<g>
</g>
</svg>
